<svg id="Layer_1" data-name="Layer 1" xmlns="http://www.w3.org/2000/svg" viewBox="0 0 350 58.74">
  <defs>
    <style>
      .cls-1 {
        fill: #231f20;
      }

      .cls-1, .cls-2 {
        fill-rule: evenodd;
      }

      .cls-2 {
        fill: #c1d72f;
      }
    </style>
  </defs>
  <path class="cls-1" d="M290.37,30.76h20.82c6.25,0,11,.57,13.67,2.07s3.87,4.16,3.87,7.73V57.81h-11V41.45c0-2.09-.59-3.28-1.48-3.87s-3-.89-5.94-.89h-8.92V57.81h-11ZM132.2,57.81H120.6V20.64h11.6Zm-49-15.47V35.8h28.54v22H85.82a50.14,50.14,0,0,1-11-.9,21.78,21.78,0,0,1-7.43-2.38,16,16,0,0,1-6.55-5.94A16.1,16.1,0,0,1,58.76,40c0-6.55,2.08-11.3,6.55-14.57,4.46-3,11.3-4.76,20.51-4.76h25.87v6.54H85.82c-4.76,0-8.32.89-10.4,3s-3.28,5.06-3.28,9.52c0,3.86,1.19,6.84,3.28,8.62S81.06,51,85.82,51H99.5V42.34Z" transform="translate(-15 -8.13)"/>
  <path class="cls-2" d="M161.33,58.1c-6.82,0-12.48-1.19-16.35-3.57-4.15-2.68-6.23-6-6.23-10.4,0-4.16,2.08-7.73,6.23-10.11,3.87-2.68,9.53-3.87,16.35-3.87.6,0,1.2,0,1.78,0,6,.19,10.76,1.4,14.28,3.84,4.17,2.38,6.25,5.95,6.25,10.11,0,4.45-2.08,7.72-5.95,10.4-4.16,2.38-9.52,3.57-16.36,3.57m0-5.64a14.14,14.14,0,0,0,7.74-2.09,7.9,7.9,0,0,0,3-6.24,7.73,7.73,0,0,0-3-6c-1.78-1.48-4.46-2.08-7.74-2.08-3.56,0-6.23.6-8,2.08a7.49,7.49,0,0,0-2.67,6,7.71,7.71,0,0,0,2.67,6.24,14.49,14.49,0,0,0,8,2.09" transform="translate(-15 -8.13)"/>
  <path class="cls-1" d="M211.29,57.81H190.47V20.64h11.3V30.75h9.52a47.29,47.29,0,0,1,10.1.89,14.85,14.85,0,0,1,6.55,3.28,14.07,14.07,0,0,1,3.56,3.86,13.86,13.86,0,0,1,1.2,5,11.6,11.6,0,0,1-5.65,10.12c-3.57,2.67-8.63,3.87-15.16,3.87Zm0-6c3.26,0,5.65-.6,6.84-1.78,1.79-.9,2.67-3,2.67-5.65,0-3-.88-4.76-2.67-6.26a13.89,13.89,0,0,0-6.89-1.7c-.63,0-1.4-.07-2.93-.07h-6.54V51.86h9.52Zm47.86.3H269V46.8H255.88c-2.66,0-4.4-.11-5.48.48a2.42,2.42,0,0,0-1.35,2.5,2.33,2.33,0,0,0,1.18,2.08c.48.34,2.38.3,4.77.3Zm0,5.64h-8.62c-4.17,0-7.43-.59-9.81-2.08-2.08-1.48-3.27-3.26-3.27-5.64,0-3.28,1.19-5.36,3.87-6.84,2.68-1.19,6.83-2.09,13.09-2.09H269v-.59a3.64,3.64,0,0,0-2.08-3.27,21.76,21.76,0,0,0-7.73-1.19h-19V30.76H263c5.93,0,10.1.58,13.07,2.37a8.3,8.3,0,0,1,4.46,7.73V57.8Z" transform="translate(-15 -8.13)"/>
  <path class="cls-2" d="M18.33,40.86c3,2.67,15.16,13.38,15.16,13.38S19.39,65.45,18.2,66.35c-1.94,1.54-4.16-.63-2.54-2.61C23,57.65,21,47,15.44,42.71c-1.45-1.57,1-4,2.89-1.85M18.33,9c3,2.67,15.16,13.38,15.16,13.38S19.39,33.58,18.2,34.48C16.26,36,14,33.85,15.66,31.87c7.32-6.08,5.33-16.71-.22-21-1.45-1.57,1-4,2.89-1.85M37.45,25.7c3,2.66,15.16,13.38,15.16,13.38S38.51,50.29,37.32,51.19c-1.94,1.54-4.16-.63-2.54-2.61,7.32-6.09,5.33-16.71-.22-21-1.45-1.56,1-4,2.89-1.85" transform="translate(-15 -8.13)"/>
  <path class="cls-1" d="M334.08,30.76h8V20.64h11V30.76H365V36.1H353.11v11a5,5,0,0,0,1.78,4.16,10.06,10.06,0,0,0,5.35,1.19H365v5.36H354.89c-4.16,0-7.43-.9-9.51-2.38-2.37-1.19-3.27-3.57-3.27-6.25V36.1h-8Z" transform="translate(-15 -8.13)"/>
</svg>
